<svg id="Capa_1" data-name="Capa 1" xmlns="http://www.w3.org/2000/svg" viewBox="0 0 179.65 66.21"><defs><style>.cls-1{fill:#fff;}.cls-2{fill:#6ee1ff;}</style></defs><path class="cls-1" d="M949,499.08h8.7l3.17,9.27,8.14-9.27h9.69l-7.09,26.38h-8.78l3.51-13.08-8.6,9.39h-.15l-3.54-9.39-3.51,13.08h-8.63Z" transform="translate(-891.35 -498.55)"/><path class="cls-1" d="M980.05,514a15.57,15.57,0,0,1,15.53-15.49c7.77,0,13.12,5.2,13.12,11.95A15.57,15.57,0,0,1,993.17,526C985.41,526,980.05,520.79,980.05,514Zm19.79-2.75c0-2.79-1.69-5-4.86-5-3.69,0-6.07,3.62-6.07,6.94a4.62,4.62,0,0,0,4.87,5C997.47,518.23,999.84,514.61,999.84,511.29Z" transform="translate(-891.35 -498.55)"/><path class="cls-1" d="M1012.7,499.08h9.68l1.13,14.81,9.13-14.81h9.91l-17.83,26.57h-8.44Z" transform="translate(-891.35 -498.55)"/><path class="cls-2" d="M981.29,529.42H993.1l-9.49,35.34H971.79Z" transform="translate(-891.35 -498.55)"/><path class="cls-2" d="M1000.82,529.42h11.82l-3.44,12.67L1021,529.42h14.38l-16.1,16.16,7.37,19.18h-12.57l-4.24-11.36-4.95,5-1.71,6.41H991.33Z" transform="translate(-891.35 -498.55)"/><path class="cls-2" d="M1040.86,529.42H1071l-2.63,9.69h-18.52l-1,3.59h17.26l-2.27,8.53h-17.26l-1.06,3.84h18.78l-2.58,9.69h-30.39Z" transform="translate(-891.35 -498.55)"/><rect class="cls-2" y="49.17" width="40.8" height="5.72" rx="1.19"/><rect class="cls-2" x="2.71" y="41.13" width="17.69" height="5.72" rx="1.19"/><path class="cls-2" d="M962.3,547c5.4-1.41,8.28-5,8.28-9.29s-2.63-8.33-13.48-8.33H941.45l-2.54,9.46H928a2.86,2.86,0,0,0,0,5.72h12a2.85,2.85,0,0,0,2.16-1,2.42,2.42,0,0,1,0,.47,2.87,2.87,0,0,1-2.86,2.86h-2.56l-2.49,9.26H906.94a2.86,2.86,0,0,0,0,5.72h34.74s0,0,0,0a2.86,2.86,0,0,1-2.51,2.82h12c12.12,0,16.87-4.8,16.87-10.75C968.06,550.37,965.63,547.9,962.3,547Zm-10.75,8.78h-5.71l1.42-5.25h5.09c2.53,0,3.79.71,3.79,2.22C956.14,554.56,954.42,555.82,951.55,555.82Zm3.13-12.52h-5.46l1.32-4.94h4.89c2.53,0,3.64.6,3.64,2.07S957.71,543.3,954.68,543.3Z" transform="translate(-891.35 -498.55)"/></svg>