<svg id="Capa_1" data-name="Capa 1" xmlns="http://www.w3.org/2000/svg" viewBox="0 0 931.54 546.07"><defs><style>.cls-1{fill:#00a3fe;}.cls-2{fill:#016eb9;}.cls-3{fill:#131f2d;}.cls-4{fill:#d5d6da;}.cls-5{fill:#657285;}.cls-6{fill:#364154;}.cls-7{fill:#eaeaea;}.cls-8{font-size:28.26px;font-family:Gotham-UltraItalic, Gotham Ultra;font-style:italic;}.cls-9{letter-spacing:0em;}.cls-10,.cls-11{fill:#fff;}.cls-11{opacity:0.5;}</style></defs><rect class="cls-1" x="14" y="27.25" width="903.53" height="516.06"/><rect class="cls-2" x="35.96" y="481.85" width="59.4" height="24.23" rx="8.98"/><rect class="cls-3" x="65.66" y="160.03" width="646.42" height="383.66"/><rect class="cls-4" x="71.56" y="166.66" width="634.54" height="377.03"/><path class="cls-3" d="M501.62,478.87a8.12,8.12,0,0,0,0-.86l37.25-6.25-.2-1.16-37.24,6.24a8.8,8.8,0,0,0-3-4.76L521,439.79l-1-.68-21.69,31L510,435l-1.12-.37L496.76,471a8.76,8.76,0,0,0-3.27-.87v-38.9h-1.18v38.9a8.39,8.39,0,0,0-1.95.35l-12.08-33.64-1.11.4,11.49,32-23.1-26.59-.89.77,24.07,27.72a8.71,8.71,0,0,0-3.11,2.86l-1.36-.24L450.6,456.76l-.54,1.05,30.25,15.33-33.72-5.79-.2,1.16,37.5,6.45,1,.5a8.8,8.8,0,0,0-.69,3.41q0,.35,0,.69L447,485.08l.18,1.17,37.21-5.52c.08.35.18.69.29,1l-34,14.6.47,1.08,34-14.6,0,0-26.68,26.91.84.83,26.48-26.7a8.63,8.63,0,0,0,1.94,2l-19.58,30.8,1,.63,19.57-30.79.53.26c-4.89,12.88-13.85,36.46-14.07,37.12l1.13.38c.19-.59,8.08-21.37,14.05-37.08a8.47,8.47,0,0,0,2.53.38h.44l-3.1,37.36,1.18.1,3.11-37.61a7.7,7.7,0,0,0,1.1-.28c6.16,15.13,14.23,35,14.45,35.66l1.12-.38c-.22-.66-9.39-23.23-14.47-35.73l.32-.16,20.78,32.85,1-.63L498.05,485.9a8.57,8.57,0,0,0,2.12-2.21L531,505.07l.67-1-30.91-21.44A8.75,8.75,0,0,0,501.62,478.87Z" transform="translate(-355.2 -191.93)"/><path class="cls-3" d="M492.9,530a51.11,51.11,0,1,1,25.88-7A51.2,51.2,0,0,1,492.9,530Zm0-95.19A44.06,44.06,0,1,0,537,478.87,44.1,44.1,0,0,0,492.9,434.82Z" transform="translate(-355.2 -191.93)"/><path class="cls-3" d="M493.29,524.22a45.05,45.05,0,1,1,45.06-45.05A45.1,45.1,0,0,1,493.29,524.22Zm0-88.28a43.23,43.23,0,1,0,43.24,43.23A43.28,43.28,0,0,0,493.29,435.94Z" transform="translate(-355.2 -191.93)"/><path class="cls-3" d="M665.4,478.87a8.12,8.12,0,0,0,0-.86l37.24-6.25-.19-1.16-37.25,6.24a8.69,8.69,0,0,0-3-4.76l22.61-32.29-1-.68-21.69,31L673.8,435l-1.12-.37L660.54,471a8.76,8.76,0,0,0-3.27-.87v-38.9h-1.18v38.9a8.47,8.47,0,0,0-2,.35l-12.07-33.64-1.11.4,11.49,32-23.1-26.59-.9.77,24.08,27.72a8.74,8.74,0,0,0-3.12,2.86l-1.36-.24-33.66-17.06-.54,1.05,30.24,15.33-33.71-5.79-.21,1.16L647.67,475l1,.5a8.8,8.8,0,0,0-.69,3.41q0,.35,0,.69l-37.22,5.52.17,1.17,37.22-5.52a9.27,9.27,0,0,0,.29,1l-34,14.6.46,1.08,34-14.6,0,0-26.68,26.91.84.83,26.47-26.7a9.06,9.06,0,0,0,1.94,2l-19.57,30.8,1,.63,19.57-30.79.53.26c-4.89,12.88-13.85,36.46-14.07,37.12l1.12.38c.2-.59,8.09-21.37,14-37.08a8.58,8.58,0,0,0,2.54.38h.43L654,524.94l1.18.1,3.11-37.61a8.05,8.05,0,0,0,1.1-.28c6.15,15.13,14.23,35,14.45,35.66l1.12-.38c-.22-.66-9.39-23.23-14.47-35.73l.32-.16,20.78,32.85,1-.63L661.83,485.9a8.53,8.53,0,0,0,2.11-2.21l30.84,21.38.67-1-30.92-21.44A8.61,8.61,0,0,0,665.4,478.87Z" transform="translate(-355.2 -191.93)"/><path class="cls-3" d="M656.68,530a51.11,51.11,0,1,1,25.88-7A51.2,51.2,0,0,1,656.68,530Zm0-95.19a44.06,44.06,0,1,0,44.05,44.05A44.1,44.1,0,0,0,656.68,434.82Z" transform="translate(-355.2 -191.93)"/><path class="cls-3" d="M657.07,524.22a45.05,45.05,0,1,1,45-45.05A45.1,45.1,0,0,1,657.07,524.22Zm0-88.28a43.23,43.23,0,1,0,43.23,43.23A43.28,43.28,0,0,0,657.07,435.94Z" transform="translate(-355.2 -191.93)"/><rect class="cls-2" x="543.51" y="389.6" width="5.32" height="98.7" transform="translate(-462.93 -4.76) rotate(-17.73)"/><polygon class="cls-2" points="261.05 201.05 261.57 199.98 260.63 200.61 260.62 200.6 260.61 200.63 130 288.93 200.94 295.1 201.4 289.8 145.42 284.93 249.63 218.21 206.03 288.05 210.5 290.94 266.98 207.18 261.05 201.05"/><path class="cls-5" d="M653.24,476.52l-30.4-65.06,4.07-1.63a5.15,5.15,0,0,1,6.7,2.88l24.56,61.8Z" transform="translate(-355.2 -191.93)"/><path class="cls-2" d="M622.84,411.46c-4.4-11.42-11.74-29.35-11.63-29.17l4.43-3c.22.32.36.54,11.9,30.47Z" transform="translate(-355.2 -191.93)"/><path class="cls-5" d="M622.54,376a4.59,4.59,0,0,0-4.31,3l-12.6-.72a4.59,4.59,0,1,0-1.12,5.28l15.64.89a4.53,4.53,0,0,0,2.39.68,4.58,4.58,0,1,0,0-9.16Z" transform="translate(-355.2 -191.93)"/><rect class="cls-5" x="219.89" y="302.7" width="16.46" height="4.93" rx="2.46"/><rect class="cls-5" x="571.15" y="477.46" width="2.07" height="25.67" transform="translate(-466.44 615.72) rotate(-65.5)"/><path class="cls-2" d="M534.58,426.39a2.62,2.62,0,0,1-2.25-.24h0c-23.94-14.45-57-9-66.62-7h0a.85.85,0,0,1-1-.83v-1.87a2.88,2.88,0,0,1,2.46-2.85c5.18-.78,17.29-2.43,24.05-2.46h.55c15.14,0,28.23,2.71,39,8.07a9.12,9.12,0,0,0,7.06.43l3-1a3.22,3.22,0,0,1,4.12,2h0a2.1,2.1,0,0,1-1.28,2.67Z" transform="translate(-355.2 -191.93)"/><path class="cls-5" d="M512.34,390s-1-4.36,1.78-4.65,12.71,1.84,15.37,1.55,16.55-2.59,19-.22,1.41,4.43-3.47,4.87-11.38,1.26-13.23,2.81S516.55,400.45,512.34,390Z" transform="translate(-355.2 -191.93)"/><path class="cls-5" d="M547.89,486a13.31,13.31,0,1,1,13.31,13.31A13.3,13.3,0,0,1,547.89,486Z" transform="translate(-355.2 -191.93)"/><path class="cls-3" d="M822.23,478.87c0-.29,0-.58,0-.86l37.24-6.25-.2-1.16L822,476.84a8.69,8.69,0,0,0-3-4.76l22.61-32.29-1-.68-21.69,31L830.62,435l-1.12-.37L817.36,471a8.71,8.71,0,0,0-3.26-.87v-38.9h-1.18v38.9a8.47,8.47,0,0,0-2,.35l-12.07-33.64-1.12.4,11.49,32-23.1-26.59-.89.77,24.08,27.72a8.74,8.74,0,0,0-3.12,2.86l-1.36-.24L771.2,456.76l-.53,1.05,30.24,15.33-33.72-5.79-.2,1.16,37.5,6.45,1,.5a8.62,8.62,0,0,0-.69,3.41q0,.35,0,.69l-37.22,5.52.17,1.17L805,480.73a7.52,7.52,0,0,0,.29,1l-34,14.6.47,1.08,34-14.6,0,0-26.68,26.91.84.83,26.47-26.7a8.84,8.84,0,0,0,1.94,2l-19.57,30.8,1,.63,19.58-30.79.52.26C805,499.67,796,523.25,795.8,523.91l1.12.38c.2-.59,8.08-21.37,14.05-37.08a8.49,8.49,0,0,0,2.54.38h.43l-3.09,37.36,1.18.1,3.11-37.61a8.44,8.44,0,0,0,1.1-.28c6.15,15.13,14.23,35,14.45,35.66l1.12-.38c-.22-.66-9.4-23.23-14.48-35.73l.33-.16,20.77,32.85,1-.63L818.66,485.9a8.7,8.7,0,0,0,2.11-2.21l30.83,21.38.68-1-30.92-21.44A8.61,8.61,0,0,0,822.23,478.87Z" transform="translate(-355.2 -191.93)"/><path class="cls-3" d="M813.51,530a51.14,51.14,0,1,1,25.87-7A51.2,51.2,0,0,1,813.51,530Zm0-95.19a44.06,44.06,0,1,0,44,44.05A44.1,44.1,0,0,0,813.51,434.82Z" transform="translate(-355.2 -191.93)"/><path class="cls-3" d="M813.9,524.22A45.05,45.05,0,1,1,859,479.17,45.1,45.1,0,0,1,813.9,524.22Zm0-88.28a43.23,43.23,0,1,0,43.23,43.23A43.28,43.28,0,0,0,813.9,435.94Z" transform="translate(-355.2 -191.93)"/><path class="cls-3" d="M986,478.87a8.11,8.11,0,0,0,0-.86l37.25-6.25-.2-1.16-37.24,6.24a8.75,8.75,0,0,0-3-4.76l22.6-32.29-1-.68-21.68,31L994.4,435l-1.12-.37L981.14,471a8.71,8.71,0,0,0-3.26-.87v-38.9h-1.19v38.9a8.39,8.39,0,0,0-2,.35l-12.07-33.64-1.12.4,11.49,32-23.1-26.59-.89.77,24.08,27.72a8.74,8.74,0,0,0-3.12,2.86l-1.36-.24L935,456.76l-.53,1.05,30.24,15.33L931,467.35l-.2,1.16,37.5,6.45,1,.5a8.8,8.8,0,0,0-.69,3.41c0,.23,0,.46,0,.69l-37.22,5.52.18,1.17,37.21-5.52a9.32,9.32,0,0,0,.3,1l-34,14.6.47,1.08,34-14.6,0,0-26.67,26.91.84.83,26.47-26.7a8.84,8.84,0,0,0,1.94,2l-19.58,30.8,1,.63,19.58-30.79.52.26c-4.89,12.88-13.84,36.46-14.06,37.12l1.12.38c.19-.59,8.08-21.37,14-37.08a8.49,8.49,0,0,0,2.54.38h.43l-3.09,37.36,1.17.1,3.12-37.61a8.44,8.44,0,0,0,1.1-.28c6.15,15.13,14.23,35,14.44,35.66l1.12-.38c-.22-.66-9.39-23.23-14.47-35.73l.33-.16,20.77,32.85,1-.63L982.43,485.9a8.57,8.57,0,0,0,2.12-2.21l30.83,21.38.68-1-30.92-21.44A8.75,8.75,0,0,0,986,478.87Z" transform="translate(-355.2 -191.93)"/><path class="cls-3" d="M977.29,530a51.11,51.11,0,1,1,25.87-7A51.2,51.2,0,0,1,977.29,530Zm0-95.19a44,44,0,1,0,44.05,44.05A44.11,44.11,0,0,0,977.29,434.82Z" transform="translate(-355.2 -191.93)"/><path class="cls-3" d="M977.68,524.22a45.05,45.05,0,1,1,45.05-45.05A45.1,45.1,0,0,1,977.68,524.22Zm0-88.28a43.23,43.23,0,1,0,43.23,43.23A43.28,43.28,0,0,0,977.68,435.94Z" transform="translate(-355.2 -191.93)"/><rect class="cls-3" x="864.11" y="389.6" width="5.32" height="98.7" transform="translate(-447.7 92.87) rotate(-17.73)"/><polygon class="cls-6" points="581.65 201.05 582.17 199.98 581.23 200.61 581.22 200.6 581.21 200.63 450.6 288.93 521.54 295.1 522.01 289.8 466.02 284.93 570.23 218.21 526.63 288.05 531.11 290.94 587.58 207.18 581.65 201.05"/><path class="cls-2" d="M973.84,476.52l-30.4-65.06,4.08-1.63a5.15,5.15,0,0,1,6.7,2.88l24.55,61.8Z" transform="translate(-355.2 -191.93)"/><path class="cls-6" d="M943.44,411.46C939,400,931.7,382.11,931.82,382.29l4.42-3c.22.32.36.54,11.9,30.47Z" transform="translate(-355.2 -191.93)"/><path class="cls-5" d="M943.15,376a4.58,4.58,0,0,0-4.31,3l-12.61-.72a4.58,4.58,0,1,0-1.11,5.28l15.63.89a4.58,4.58,0,1,0,2.4-8.48Z" transform="translate(-355.2 -191.93)"/><rect class="cls-5" x="540.5" y="302.7" width="16.46" height="4.93" rx="2.46"/><rect class="cls-5" x="891.75" y="477.46" width="2.07" height="25.67" transform="translate(-278.78 907.46) rotate(-65.5)"/><path class="cls-6" d="M855.19,426.39a2.65,2.65,0,0,1-2.26-.24h0c-23.93-14.45-57-9-66.62-7h0a.85.85,0,0,1-1-.83v-1.87a2.88,2.88,0,0,1,2.46-2.85c5.19-.78,17.29-2.43,24-2.46h.55c15.15,0,28.23,2.71,39,8.07a9.09,9.09,0,0,0,7.05.43l2.95-1a3.22,3.22,0,0,1,4.12,2h0a2.09,2.09,0,0,1-1.27,2.67Z" transform="translate(-355.2 -191.93)"/><path class="cls-2" d="M833,390s-1-4.36,1.77-4.65,12.71,1.84,15.37,1.55,16.56-2.59,19-.22,1.4,4.43-3.48,4.87-11.38,1.26-13.23,2.81S837.16,400.45,833,390Z" transform="translate(-355.2 -191.93)"/><path class="cls-5" d="M868.5,486a13.3,13.3,0,1,1,13.3,13.31A13.29,13.29,0,0,1,868.5,486Z" transform="translate(-355.2 -191.93)"/><path class="cls-3" d="M501.62,678.8a8.06,8.06,0,0,0,0-.85l37.25-6.25-.2-1.17-37.24,6.25a8.77,8.77,0,0,0-3-4.76l22.6-32.3-1-.67-21.69,31L510,634.94l-1.12-.37L496.76,671a8.77,8.77,0,0,0-3.27-.88V631.21h-1.18V670.1a9,9,0,0,0-1.95.36l-12.08-33.64-1.11.4,11.49,32-23.1-26.6-.89.78,24.07,27.72a8.71,8.71,0,0,0-3.11,2.86l-1.36-.24L450.6,656.7l-.54,1,30.25,15.33-33.72-5.8-.2,1.17,37.5,6.45,1,.5a8.71,8.71,0,0,0-.69,3.4c0,.24,0,.47,0,.7L447,685l.18,1.17,37.21-5.52c.08.35.18.69.29,1l-34,14.59.47,1.09,34-14.6,0,0-26.68,26.91.84.83,26.48-26.7a8.63,8.63,0,0,0,1.94,2l-19.58,30.79,1,.64,19.57-30.79.53.26c-4.89,12.87-13.85,36.46-14.07,37.12l1.13.37c.19-.58,8.08-21.36,14.05-37.07a8.8,8.8,0,0,0,2.53.38l.44,0-3.1,37.37,1.18.09,3.11-37.6a9.31,9.31,0,0,0,1.1-.28c6.16,15.13,14.23,35,14.45,35.66l1.12-.38c-.22-.66-9.39-23.24-14.47-35.73l.32-.16,20.78,32.85,1-.63-20.78-32.86a8.57,8.57,0,0,0,2.12-2.21L531,705l.67-1L500.76,682.6A8.76,8.76,0,0,0,501.62,678.8Z" transform="translate(-355.2 -191.93)"/><path class="cls-3" d="M492.9,730a51.11,51.11,0,1,1,25.88-7A51.2,51.2,0,0,1,492.9,730Zm0-95.2a44.07,44.07,0,1,0,44.05,44A44.1,44.1,0,0,0,492.9,634.75Z" transform="translate(-355.2 -191.93)"/><path class="cls-2" d="M493.29,724.16a45.05,45.05,0,1,1,45.06-45A45.1,45.1,0,0,1,493.29,724.16Zm0-88.28a43.23,43.23,0,1,0,43.24,43.23A43.28,43.28,0,0,0,493.29,635.88Z" transform="translate(-355.2 -191.93)"/><path class="cls-3" d="M665.4,678.8a8.06,8.06,0,0,0,0-.85l37.24-6.25-.19-1.17-37.25,6.25a8.66,8.66,0,0,0-3-4.76l22.61-32.3-1-.67L662.1,670l11.7-35.09-1.12-.37L660.54,671a8.77,8.77,0,0,0-3.27-.88V631.21h-1.18V670.1a9,9,0,0,0-2,.36l-12.07-33.64-1.11.4,11.49,32-23.1-26.6-.9.78,24.08,27.72A8.74,8.74,0,0,0,649.4,674l-1.36-.24L614.38,656.7l-.54,1,30.24,15.33-33.71-5.8-.21,1.17,37.51,6.45,1,.5a8.71,8.71,0,0,0-.69,3.4c0,.24,0,.47,0,.7L610.77,685l.17,1.17,37.22-5.52a9.27,9.27,0,0,0,.29,1l-34,14.59.46,1.09,34-14.6,0,0-26.68,26.91.84.83,26.47-26.7a9.06,9.06,0,0,0,1.94,2l-19.57,30.79,1,.64,19.57-30.79.53.26c-4.89,12.87-13.85,36.46-14.07,37.12l1.12.37c.2-.58,8.09-21.36,14-37.07a8.92,8.92,0,0,0,2.54.38l.43,0L654,724.88l1.18.09,3.11-37.6a9.84,9.84,0,0,0,1.1-.28c6.15,15.13,14.23,35,14.45,35.66l1.12-.38c-.22-.66-9.39-23.24-14.47-35.73l.32-.16,20.78,32.85,1-.63-20.78-32.86a8.53,8.53,0,0,0,2.11-2.21L694.78,705l.67-1L664.53,682.6A8.62,8.62,0,0,0,665.4,678.8Z" transform="translate(-355.2 -191.93)"/><path class="cls-3" d="M656.68,730a51.11,51.11,0,1,1,25.88-7A51.21,51.21,0,0,1,656.68,730Zm0-95.2a44.07,44.07,0,1,0,44.05,44A44.1,44.1,0,0,0,656.68,634.75Z" transform="translate(-355.2 -191.93)"/><path class="cls-2" d="M657.07,724.16a45.05,45.05,0,1,1,45-45A45.1,45.1,0,0,1,657.07,724.16Zm0-88.28a43.23,43.23,0,1,0,43.23,43.23A43.28,43.28,0,0,0,657.07,635.88Z" transform="translate(-355.2 -191.93)"/><rect class="cls-1" x="543.51" y="589.54" width="5.32" height="98.7" transform="translate(-523.81 4.73) rotate(-17.73)"/><polygon class="cls-2" points="261.05 400.99 261.57 399.92 260.63 400.55 260.62 400.54 260.61 400.57 130 488.87 200.94 495.04 201.4 489.74 145.42 484.87 249.63 418.15 206.03 487.99 210.5 490.88 266.98 407.12 261.05 400.99"/><path class="cls-5" d="M653.24,676.46l-30.4-65.06,4.07-1.63a5.15,5.15,0,0,1,6.7,2.88l24.56,61.8Z" transform="translate(-355.2 -191.93)"/><path class="cls-1" d="M622.84,611.4c-4.4-11.42-11.74-29.35-11.63-29.17l4.43-3c.22.33.36.54,11.9,30.48Z" transform="translate(-355.2 -191.93)"/><path class="cls-5" d="M622.54,575.9a4.59,4.59,0,0,0-4.31,3l-12.6-.72a4.59,4.59,0,1,0-1.12,5.28l15.64.89a4.53,4.53,0,0,0,2.39.68,4.58,4.58,0,0,0,0-9.16Z" transform="translate(-355.2 -191.93)"/><rect class="cls-5" x="219.89" y="502.64" width="16.46" height="4.93" rx="2.46"/><rect class="cls-5" x="571.15" y="677.4" width="2.07" height="25.67" transform="translate(-648.38 732.75) rotate(-65.5)"/><path class="cls-2" d="M534.58,626.33a2.66,2.66,0,0,1-2.25-.24h0c-23.94-14.46-57-9-66.62-7h0a.85.85,0,0,1-1-.83v-1.87a2.89,2.89,0,0,1,2.46-2.86c5.18-.77,17.29-2.42,24.05-2.45h.55c15.14,0,28.23,2.71,39,8.06a9.07,9.07,0,0,0,7.06.44l3-1a3.24,3.24,0,0,1,4.12,2h0a2.09,2.09,0,0,1-1.28,2.66Z" transform="translate(-355.2 -191.93)"/><path class="cls-5" d="M512.34,589.89s-1-4.36,1.78-4.66,12.71,1.85,15.37,1.56,16.55-2.59,19-.23,1.41,4.44-3.47,4.88-11.38,1.26-13.23,2.81S516.55,600.39,512.34,589.89Z" transform="translate(-355.2 -191.93)"/><path class="cls-5" d="M547.89,685.9a13.31,13.31,0,1,1,13.31,13.3A13.3,13.3,0,0,1,547.89,685.9Z" transform="translate(-355.2 -191.93)"/><rect class="cls-6" x="91.5" y="338.08" width="256.2" height="5.3"/><rect class="cls-6" x="91.5" y="538.02" width="256.2" height="5.3"/><path class="cls-3" d="M819.62,676.71a8.12,8.12,0,0,0,0-.86l37.24-6.25-.19-1.16-37.25,6.25a8.68,8.68,0,0,0-3-4.77L839,637.63l-1-.68-21.69,31L828,632.84l-1.13-.37-12.13,36.42a8.58,8.58,0,0,0-3.27-.88v-38.9h-1.18V668a8,8,0,0,0-2,.36l-12.07-33.65-1.11.4,11.49,32-23.1-26.59-.9.77L806.74,669a8.74,8.74,0,0,0-3.12,2.86l-1.36-.23L768.6,654.6l-.54,1L798.3,671l-33.72-5.8-.2,1.16,37.51,6.45,1,.5a8.62,8.62,0,0,0-.69,3.41q0,.35,0,.69L765,682.92l.17,1.17,37.22-5.52a9.27,9.27,0,0,0,.29,1l-34,14.6.46,1.09,34-14.6,0,0-26.68,26.91.84.83,26.47-26.7a8.85,8.85,0,0,0,1.94,2l-19.57,30.8,1,.63,19.57-30.79.53.26c-4.89,12.88-13.85,36.46-14.07,37.12l1.12.38c.2-.59,8.09-21.37,14.05-37.08a8.58,8.58,0,0,0,2.54.38h.43l-3.09,37.36,1.18.1,3.11-37.61a8.05,8.05,0,0,0,1.1-.28c6.15,15.13,14.23,35,14.45,35.66l1.12-.37c-.22-.66-9.39-23.24-14.47-35.73l.32-.17,20.78,32.85,1-.63-20.77-32.85a8.74,8.74,0,0,0,2.11-2.22L849,702.91l.67-1L818.75,680.5A8.58,8.58,0,0,0,819.62,676.71Z" transform="translate(-355.2 -191.93)"/><path class="cls-3" d="M810.9,727.85a51.13,51.13,0,1,1,25.88-7A51.2,51.2,0,0,1,810.9,727.85Zm0-95.19A44.07,44.07,0,1,0,855,676.71,44.1,44.1,0,0,0,810.9,632.66Z" transform="translate(-355.2 -191.93)"/><path class="cls-2" d="M811.29,722.06a45,45,0,1,1,45.05-45A45.1,45.1,0,0,1,811.29,722.06Zm0-88.28A43.23,43.23,0,1,0,854.52,677,43.28,43.28,0,0,0,811.29,633.78Z" transform="translate(-355.2 -191.93)"/><path class="cls-3" d="M983.4,676.71c0-.29,0-.58,0-.86l37.24-6.25-.2-1.16-37.24,6.25a8.68,8.68,0,0,0-3-4.77l22.6-32.29-1-.68-21.69,31,11.69-35.09-1.12-.37-12.14,36.42a8.53,8.53,0,0,0-3.26-.88v-38.9h-1.18V668a7.9,7.9,0,0,0-2,.36l-12.07-33.65-1.12.4,11.49,32-23.1-26.59-.89.77L970.52,669a8.74,8.74,0,0,0-3.12,2.86l-1.36-.23L932.37,654.6l-.53,1L962.08,671l-33.72-5.8-.2,1.16,37.5,6.45,1,.5a8.62,8.62,0,0,0-.69,3.41q0,.35,0,.69l-37.22,5.52.17,1.17,37.22-5.52a7.52,7.52,0,0,0,.29,1l-34,14.6.47,1.09,34-14.6v0l-26.67,26.91.84.83,26.47-26.7a8.64,8.64,0,0,0,1.94,2l-19.57,30.8,1,.63,19.58-30.79.52.26c-4.89,12.88-13.84,36.46-14.06,37.12l1.12.38c.2-.59,8.08-21.37,14-37.08a8.49,8.49,0,0,0,2.54.38h.43L972,722.78l1.18.1,3.11-37.61a8.44,8.44,0,0,0,1.1-.28c6.15,15.13,14.23,35,14.45,35.66l1.12-.37c-.22-.66-9.4-23.24-14.48-35.73l.33-.17,20.77,32.85,1-.63-20.77-32.85a8.91,8.91,0,0,0,2.11-2.22l30.83,21.38.68-1L982.53,680.5A8.58,8.58,0,0,0,983.4,676.71Z" transform="translate(-355.2 -191.93)"/><path class="cls-3" d="M974.68,727.85a51.16,51.16,0,1,1,25.87-7A51.2,51.2,0,0,1,974.68,727.85Zm0-95.19a44.07,44.07,0,1,0,44.05,44.05A44.1,44.1,0,0,0,974.68,632.66Z" transform="translate(-355.2 -191.93)"/><path class="cls-2" d="M975.07,722.06a45,45,0,1,1,45-45A45.1,45.1,0,0,1,975.07,722.06Zm0-88.28A43.23,43.23,0,1,0,1018.3,677,43.28,43.28,0,0,0,975.07,633.78Z" transform="translate(-355.2 -191.93)"/><rect class="cls-1" x="861.5" y="587.45" width="5.32" height="98.7" transform="translate(-508.07 101.47) rotate(-17.73)"/><polygon class="cls-2" points="579.04 398.89 579.57 397.82 578.62 398.45 578.62 398.45 578.6 398.47 447.99 486.77 518.94 492.94 519.4 487.64 463.41 482.77 567.62 416.06 524.03 485.89 528.5 488.78 584.97 405.02 579.04 398.89"/><path class="cls-5" d="M971.24,674.36,940.83,609.3l4.08-1.63a5.16,5.16,0,0,1,6.7,2.88l24.55,61.8Z" transform="translate(-355.2 -191.93)"/><path class="cls-1" d="M940.83,609.3c-4.4-11.41-11.74-29.35-11.62-29.17l4.43-3c.21.32.36.54,11.89,30.48Z" transform="translate(-355.2 -191.93)"/><path class="cls-5" d="M940.54,573.8a4.58,4.58,0,0,0-4.31,3l-12.6-.72a4.59,4.59,0,1,0-1.12,5.28l15.63.89a4.58,4.58,0,1,0,2.4-8.48Z" transform="translate(-355.2 -191.93)"/><rect class="cls-5" x="537.89" y="500.54" width="16.46" height="4.93" rx="2.46"/><rect class="cls-5" x="889.15" y="675.31" width="2.07" height="25.67" transform="translate(-460.34 1020.89) rotate(-65.5)"/><path class="cls-2" d="M852.58,624.23a2.68,2.68,0,0,1-2.26-.23h0c-23.93-14.46-57-9-66.61-7h0a.84.84,0,0,1-1-.83v-1.87a2.87,2.87,0,0,1,2.46-2.85c5.18-.77,17.28-2.43,24-2.46h.55c15.15,0,28.23,2.71,39,8.07a9.05,9.05,0,0,0,7,.43l3-1a3.23,3.23,0,0,1,4.13,2h0a2.09,2.09,0,0,1-1.28,2.66Z" transform="translate(-355.2 -191.93)"/><path class="cls-5" d="M830.34,587.79s-1-4.36,1.77-4.65,12.71,1.85,15.38,1.55,16.55-2.59,19-.22,1.4,4.43-3.47,4.88-11.39,1.25-13.23,2.8S834.55,598.29,830.34,587.79Z" transform="translate(-355.2 -191.93)"/><path class="cls-5" d="M865.89,683.8a13.31,13.31,0,1,1,13.3,13.31A13.31,13.31,0,0,1,865.89,683.8Z" transform="translate(-355.2 -191.93)"/><rect class="cls-6" x="409.49" y="535.92" width="256.2" height="5.3"/><rect class="cls-6" x="412.1" y="338.08" width="256.2" height="5.3"/><rect class="cls-2" x="257.74" y="79.84" width="264.62" height="52.41"/><rect class="cls-7" x="255.29" y="76.52" width="264.62" height="52.41"/><text class="cls-8" transform="translate(272.34 112.39)">E<tspan class="cls-9" x="19.02" y="0">s</tspan><tspan x="33.63" y="0">tación - Alpha</tspan></text><rect class="cls-2" width="931.54" height="42.63"/><rect class="cls-2" x="54.25" y="59.17" width="59.4" height="24.23" rx="8.98"/><rect class="cls-2" x="684.68" y="90.61" width="59.4" height="24.23" rx="8.98"/><rect class="cls-2" x="831" y="124.49" width="59.4" height="24.23" rx="8.98"/><rect class="cls-2" x="717.79" y="490.52" width="59.4" height="24.23" rx="8.98"/><rect class="cls-2" x="654.98" y="120.14" width="59.4" height="24.23" rx="8.98"/><rect class="cls-2" x="152.2" y="58.93" width="59.4" height="24.23" rx="8.98"/><rect class="cls-2" x="181.9" y="84.94" width="59.4" height="24.23" rx="8.98"/><rect class="cls-2" x="26.29" y="111.59" width="59.4" height="24.23" rx="8.98"/><path class="cls-2" d="M405.83,329.49H369.2v24.23h36.63a5.36,5.36,0,0,0,5.36-5.36V334.85A5.36,5.36,0,0,0,405.83,329.49Z" transform="translate(-355.2 -191.93)"/><path class="cls-2" d="M1272.73,346.48h-24.34a5.36,5.36,0,0,0-5.36,5.35v13.52a5.36,5.36,0,0,0,5.36,5.35h24.34Z" transform="translate(-355.2 -191.93)"/><rect class="cls-3" x="730.25" y="219.58" width="151.65" height="323.79"/><rect class="cls-4" x="735.49" y="224.8" width="140.46" height="318.57"/><polygon class="cls-1" points="259.06 338.08 234.08 338.08 242.38 305.16 267.36 305.16 259.06 338.08"/><path class="cls-10" d="M597.73,511a2.69,2.69,0,0,1,.94.15,2.29,2.29,0,0,1,.68.35,1.67,1.67,0,0,1,.41.48,1.2,1.2,0,0,1,.15.49.15.15,0,0,1-.06.15.2.2,0,0,1-.15.06h-.56a.34.34,0,0,1-.2,0,.58.58,0,0,1-.13-.14,1,1,0,0,0-.36-.35,1.5,1.5,0,0,0-.72-.14,1.67,1.67,0,0,0-.39,0,1.08,1.08,0,0,0-.33.13.7.7,0,0,0-.22.2.5.5,0,0,0-.07.27.56.56,0,0,0,.07.3.62.62,0,0,0,.26.2,2.17,2.17,0,0,0,.47.15l.73.17a5.45,5.45,0,0,1,.82.24,2.2,2.2,0,0,1,.57.34,1.28,1.28,0,0,1,.32.45,1.34,1.34,0,0,1,.11.58,1.37,1.37,0,0,1-.16.66,1.61,1.61,0,0,1-.45.53,2.4,2.4,0,0,1-.72.34,3.25,3.25,0,0,1-1,.13,3.41,3.41,0,0,1-.85-.11,2.34,2.34,0,0,1-.72-.31,1.56,1.56,0,0,1-.5-.49,1.29,1.29,0,0,1-.22-.63.21.21,0,0,1,.06-.16.25.25,0,0,1,.16-.06h.55a.41.41,0,0,1,.21,0,.33.33,0,0,1,.12.14,1.28,1.28,0,0,0,.14.21.63.63,0,0,0,.21.18,1.21,1.21,0,0,0,.34.13,1.79,1.79,0,0,0,.5.05,3.33,3.33,0,0,0,.46,0,1.8,1.8,0,0,0,.39-.12.75.75,0,0,0,.27-.21.44.44,0,0,0,.11-.3.4.4,0,0,0-.11-.29,1,1,0,0,0-.34-.19l-.56-.15-.77-.18a4.42,4.42,0,0,1-.7-.23,1.81,1.81,0,0,1-.49-.32,1.2,1.2,0,0,1-.29-.45,1.68,1.68,0,0,1-.1-.62,1.34,1.34,0,0,1,.16-.66,1.67,1.67,0,0,1,.44-.52,2,2,0,0,1,.66-.33A2.53,2.53,0,0,1,597.73,511Z" transform="translate(-355.2 -191.93)"/><path class="cls-10" d="M603.51,511.08a.26.26,0,0,1,.2.07.89.89,0,0,1,.11.2l1.94,5a.07.07,0,0,1,0,0,.25.25,0,0,1-.06.16.2.2,0,0,1-.15.06H605a.29.29,0,0,1-.23-.07.31.31,0,0,1-.08-.13l-.35-.88h-2.51l-.34.88a.51.51,0,0,1-.09.13.28.28,0,0,1-.22.07h-.57a.21.21,0,0,1-.22-.22.07.07,0,0,1,0,0l2-5a.62.62,0,0,1,.11-.2.22.22,0,0,1,.19-.07Zm.44,3.49-.87-2.26-.88,2.26Z" transform="translate(-355.2 -191.93)"/><path class="cls-10" d="M610.19,515.65a.21.21,0,0,1,.15.07.18.18,0,0,1,.07.15v.56a.21.21,0,0,1-.07.16.2.2,0,0,1-.15.06h-3.48a.2.2,0,0,1-.15-.06.25.25,0,0,1-.06-.16V511.3a.2.2,0,0,1,.06-.15.18.18,0,0,1,.15-.07h.64a.21.21,0,0,1,.16.07.2.2,0,0,1,.06.15v4.35Z" transform="translate(-355.2 -191.93)"/><path class="cls-10" d="M614.88,515.65a.21.21,0,0,1,.15.07.2.2,0,0,1,.06.15v.56a.25.25,0,0,1-.06.16.2.2,0,0,1-.15.06h-3.49a.2.2,0,0,1-.15-.06.21.21,0,0,1-.07-.16V511.3a.24.24,0,0,1,.22-.22h3.42a.21.21,0,0,1,.16.07.2.2,0,0,1,.06.15v.56a.2.2,0,0,1-.06.15.21.21,0,0,1-.16.07h-2.56v1.26h2.39a.2.2,0,0,1,.15.06.25.25,0,0,1,.06.16v.56a.21.21,0,0,1-.21.21h-2.39v1.32Z" transform="translate(-355.2 -191.93)"/><polygon class="cls-1" points="293.5 538.02 268.52 538.02 276.82 505.1 301.8 505.1 293.5 538.02"/><path class="cls-10" d="M632.17,710.94a3,3,0,0,1,.94.14,2.55,2.55,0,0,1,.68.36,1.63,1.63,0,0,1,.41.47,1.3,1.3,0,0,1,.15.49.16.16,0,0,1-.06.16.2.2,0,0,1-.15.06h-.56a.34.34,0,0,1-.2,0,.58.58,0,0,1-.13-.14,1,1,0,0,0-.36-.35,1.38,1.38,0,0,0-.72-.15,1.67,1.67,0,0,0-.39.05,1.2,1.2,0,0,0-.33.13.58.58,0,0,0-.21.2.43.43,0,0,0-.08.27.56.56,0,0,0,.07.3.71.71,0,0,0,.26.2,2.92,2.92,0,0,0,.47.15l.73.17a5.45,5.45,0,0,1,.82.24,1.94,1.94,0,0,1,.57.33,1.28,1.28,0,0,1,.32.45,1.36,1.36,0,0,1,.11.58,1.41,1.41,0,0,1-.16.67,1.39,1.39,0,0,1-.45.52,2.41,2.41,0,0,1-.72.35,3.61,3.61,0,0,1-1,.13,3.41,3.41,0,0,1-.85-.11,2.61,2.61,0,0,1-.72-.31,1.67,1.67,0,0,1-.5-.49,1.29,1.29,0,0,1-.22-.64A.2.2,0,0,1,630,715a.25.25,0,0,1,.16-.06h.55a.33.33,0,0,1,.21.05.33.33,0,0,1,.12.14,1.28,1.28,0,0,0,.14.21.63.63,0,0,0,.21.18,1.21,1.21,0,0,0,.34.13,1.79,1.79,0,0,0,.5,0,3.33,3.33,0,0,0,.46,0,1.8,1.8,0,0,0,.39-.12.75.75,0,0,0,.27-.21.45.45,0,0,0,.11-.31.39.39,0,0,0-.11-.28.84.84,0,0,0-.34-.19,3,3,0,0,0-.56-.15l-.77-.19a4.47,4.47,0,0,1-.7-.22,1.62,1.62,0,0,1-.49-.33,1.09,1.09,0,0,1-.29-.44,1.68,1.68,0,0,1-.1-.62,1.46,1.46,0,0,1,.16-.66,1.67,1.67,0,0,1,.44-.52,2.41,2.41,0,0,1,.66-.34A2.82,2.82,0,0,1,632.17,710.94Z" transform="translate(-355.2 -191.93)"/><path class="cls-10" d="M638,711a.26.26,0,0,1,.2.07.71.71,0,0,1,.11.2l1.94,5a.07.07,0,0,1,0,0,.2.2,0,0,1-.06.15.18.18,0,0,1-.15.07h-.57a.35.35,0,0,1-.23-.07.38.38,0,0,1-.08-.13l-.35-.88h-2.51l-.34.88a.77.77,0,0,1-.09.13.32.32,0,0,1-.22.07H635a.24.24,0,0,1-.22-.22.07.07,0,0,1,0,0l1.95-5a.53.53,0,0,1,.11-.2.22.22,0,0,1,.19-.07Zm.44,3.49-.87-2.27-.88,2.27Z" transform="translate(-355.2 -191.93)"/><path class="cls-10" d="M644.63,715.59a.21.21,0,0,1,.16.07.2.2,0,0,1,.06.15v.56a.2.2,0,0,1-.06.15.21.21,0,0,1-.16.07h-3.48a.18.18,0,0,1-.15-.07.2.2,0,0,1-.06-.15v-5.14a.24.24,0,0,1,.06-.15.2.2,0,0,1,.15-.06h.65a.21.21,0,0,1,.21.21v4.36Z" transform="translate(-355.2 -191.93)"/><path class="cls-10" d="M649.32,715.59a.18.18,0,0,1,.15.07.2.2,0,0,1,.06.15v.56a.2.2,0,0,1-.06.15.18.18,0,0,1-.15.07h-3.49a.24.24,0,0,1-.22-.22v-5.14a.21.21,0,0,1,.07-.15.2.2,0,0,1,.15-.06h3.42a.25.25,0,0,1,.16.06.24.24,0,0,1,.06.15v.57a.2.2,0,0,1-.06.15.25.25,0,0,1-.16.06h-2.56v1.27h2.39a.2.2,0,0,1,.15.06.22.22,0,0,1,.06.15v.57a.21.21,0,0,1-.21.21h-2.39v1.32Z" transform="translate(-355.2 -191.93)"/><polygon class="cls-2" points="603.02 338.08 578.04 338.08 586.34 305.16 611.32 305.16 603.02 338.08"/><path class="cls-10" d="M941.69,511a2.69,2.69,0,0,1,.94.15,2.29,2.29,0,0,1,.68.35,1.67,1.67,0,0,1,.41.48,1.2,1.2,0,0,1,.15.49.15.15,0,0,1-.06.15.22.22,0,0,1-.15.06h-.56a.34.34,0,0,1-.2,0,.58.58,0,0,1-.13-.14,1.1,1.1,0,0,0-.36-.35,1.5,1.5,0,0,0-.72-.14,1.61,1.61,0,0,0-.39,0,1,1,0,0,0-.33.13.7.7,0,0,0-.22.2.5.5,0,0,0-.08.27.56.56,0,0,0,.08.3.58.58,0,0,0,.25.2,2.5,2.5,0,0,0,.48.15l.73.17a5.45,5.45,0,0,1,.82.24,2.2,2.2,0,0,1,.57.34,1.28,1.28,0,0,1,.32.45,1.5,1.5,0,0,1,.11.58,1.37,1.37,0,0,1-.16.66,1.74,1.74,0,0,1-.45.53,2.35,2.35,0,0,1-.73.34,3.14,3.14,0,0,1-1,.13,3.35,3.35,0,0,1-.85-.11,2.34,2.34,0,0,1-.72-.31,1.56,1.56,0,0,1-.5-.49,1.29,1.29,0,0,1-.22-.63.21.21,0,0,1,.06-.16.25.25,0,0,1,.16-.06h.55a.41.41,0,0,1,.21,0,.33.33,0,0,1,.12.14,2.39,2.39,0,0,0,.13.21.79.79,0,0,0,.22.18,1.21,1.21,0,0,0,.34.13,1.79,1.79,0,0,0,.5.05,3.44,3.44,0,0,0,.46,0,1.8,1.8,0,0,0,.39-.12,1,1,0,0,0,.27-.21.44.44,0,0,0,.11-.3.37.37,0,0,0-.12-.29.84.84,0,0,0-.33-.19l-.56-.15-.78-.18a4.64,4.64,0,0,1-.69-.23,1.81,1.81,0,0,1-.49-.32,1.2,1.2,0,0,1-.29-.45,1.68,1.68,0,0,1-.1-.62,1.34,1.34,0,0,1,.16-.66,1.67,1.67,0,0,1,.44-.52,2,2,0,0,1,.66-.33A2.49,2.49,0,0,1,941.69,511Z" transform="translate(-355.2 -191.93)"/><path class="cls-10" d="M947.47,511.08a.22.22,0,0,1,.19.07.48.48,0,0,1,.11.2l2,5a.07.07,0,0,1,0,0,.25.25,0,0,1-.06.16.24.24,0,0,1-.15.06h-.58a.28.28,0,0,1-.22-.07.51.51,0,0,1-.09-.13l-.34-.88h-2.51l-.34.88a.51.51,0,0,1-.09.13.28.28,0,0,1-.22.07h-.58a.24.24,0,0,1-.15-.06.25.25,0,0,1-.06-.16.07.07,0,0,1,0,0l1.95-5a.48.48,0,0,1,.11-.2.22.22,0,0,1,.19-.07Zm.44,3.49-.87-2.26-.88,2.26Z" transform="translate(-355.2 -191.93)"/><path class="cls-10" d="M954.15,515.65a.21.21,0,0,1,.15.07.18.18,0,0,1,.07.15v.56a.21.21,0,0,1-.07.16.2.2,0,0,1-.15.06h-3.48a.2.2,0,0,1-.15-.06.26.26,0,0,1-.07-.16V511.3a.21.21,0,0,1,.07-.15.18.18,0,0,1,.15-.07h.64a.24.24,0,0,1,.22.22v4.35Z" transform="translate(-355.2 -191.93)"/><path class="cls-10" d="M958.84,515.65a.26.26,0,0,1,.15.07.2.2,0,0,1,.06.15v.56a.25.25,0,0,1-.06.16.24.24,0,0,1-.15.06h-3.49a.21.21,0,0,1-.22-.22V511.3a.2.2,0,0,1,.06-.15.21.21,0,0,1,.16-.07h3.42a.24.24,0,0,1,.22.22v.56a.24.24,0,0,1-.22.22H956.2v1.26h2.4a.2.2,0,0,1,.15.06.25.25,0,0,1,.06.16v.56a.21.21,0,0,1-.21.21h-2.4v1.32Z" transform="translate(-355.2 -191.93)"/><polygon class="cls-3" points="838.64 333.37 805.68 298.36 772.64 330.78 770.44 328.53 805.77 293.87 840.93 331.21 838.64 333.37"/><rect class="cls-1" x="768.75" y="326.92" width="73.94" height="26.56"/><path class="cls-3" d="M1129.12,530.56a8.57,8.57,0,0,1,.52-2.56,5.79,5.79,0,0,1,1.33-2.09,6.32,6.32,0,0,1,2.18-1.41,9.56,9.56,0,0,1,6.19,0,6,6,0,0,1,2.18,1.41,6.25,6.25,0,0,1,1.34,2.08,8.58,8.58,0,0,1,.53,2.58c0,.3,0,.64,0,1s0,.75,0,1.15,0,.78,0,1.15,0,.71,0,1a8.57,8.57,0,0,1-.52,2.56,5.9,5.9,0,0,1-1.32,2.09,6.23,6.23,0,0,1-2.2,1.39,9.68,9.68,0,0,1-6.2,0,6.14,6.14,0,0,1-2.18-1.39,5.79,5.79,0,0,1-1.33-2.09,8.57,8.57,0,0,1-.52-2.56c0-.31,0-.65,0-1s0-.75,0-1.15,0-.78,0-1.15S1129.11,530.86,1129.12,530.56Zm11,.12a3.86,3.86,0,0,0-7.71,0c0,.61-.05,1.3-.05,2.05s0,1.43.05,2a3.74,3.74,0,0,0,1.13,2.69,4.4,4.4,0,0,0,5.46,0,3.78,3.78,0,0,0,1.12-2.69c0-.62.05-1.3.05-2S1140.15,531.29,1140.11,530.68Z" transform="translate(-355.2 -191.93)"/><path class="cls-3" d="M1153.75,524.22a6.83,6.83,0,0,1,4.56,1.39,5,5,0,0,1,1.63,4,5.09,5.09,0,0,1-1.63,4.08,6.78,6.78,0,0,1-4.56,1.4h-3.88v5.41a.65.65,0,0,1-.2.47.62.62,0,0,1-.46.19h-2a.62.62,0,0,1-.46-.19.65.65,0,0,1-.2-.47V524.88a.68.68,0,0,1,.66-.66Zm-3.88,7.89h3.76a3.91,3.91,0,0,0,2.21-.55,2.09,2.09,0,0,0,.82-1.9,2,2,0,0,0-.82-1.88,4.09,4.09,0,0,0-2.21-.52h-3.76Z" transform="translate(-355.2 -191.93)"/><path class="cls-3" d="M1173.89,538.18a.62.62,0,0,1,.46.19.63.63,0,0,1,.2.46v1.72a.65.65,0,0,1-.2.47.62.62,0,0,1-.46.19h-10.65a.62.62,0,0,1-.46-.19.65.65,0,0,1-.2-.47V524.88a.68.68,0,0,1,.66-.66h10.46a.65.65,0,0,1,.46.2.62.62,0,0,1,.19.46v1.72a.62.62,0,0,1-.19.46.65.65,0,0,1-.46.2h-7.84v3.86h7.3a.62.62,0,0,1,.46.19.63.63,0,0,1,.2.46v1.72a.68.68,0,0,1-.66.66h-7.3v4Z" transform="translate(-355.2 -191.93)"/><path class="cls-3" d="M1188.57,541.21a.85.85,0,0,1-.63-.22,4.14,4.14,0,0,1-.32-.34l-6.79-10.09v10a.65.65,0,0,1-.65.66h-2a.62.62,0,0,1-.46-.19.65.65,0,0,1-.2-.47V524.88a.68.68,0,0,1,.66-.66h1.7a.89.89,0,0,1,.63.22c.14.15.25.26.31.34l6.8,10.1v-10a.62.62,0,0,1,.19-.46.65.65,0,0,1,.46-.2h2a.63.63,0,0,1,.46.2.62.62,0,0,1,.19.46v15.67a.64.64,0,0,1-.19.47.62.62,0,0,1-.46.19Z" transform="translate(-355.2 -191.93)"/><circle class="cls-3" cx="805.72" cy="296.43" r="4.63"/><polygon class="cls-11" points="156.98 543.32 113.65 543.32 288.58 166.66 331.92 166.66 156.98 543.32"/><polygon class="cls-11" points="456.59 543.32 338.26 543.32 513.19 166.66 631.53 166.66 456.59 543.32"/><polygon class="cls-11" points="831.69 543.32 735.49 543.37 735.49 495.67 861.29 224.8 875.95 224.8 875.95 448.02 831.69 543.32"/><polygon class="cls-11" points="229.23 543.32 208.53 543.32 383.47 166.66 404.16 166.66 229.23 543.32"/><polygon class="cls-11" points="513.85 543.32 493.15 543.32 668.08 166.66 688.78 166.66 513.85 543.32"/><polygon class="cls-11" points="735.49 397.03 735.02 353.48 794.78 224.8 815.48 224.8 735.49 397.03"/><rect class="cls-3" x="2.61" y="543.26" width="926.31" height="2.81" rx="1.4"/></svg>