<svg id="Capa_1" data-name="Capa 1" xmlns="http://www.w3.org/2000/svg" viewBox="0 0 1806.25 665.72"><defs><style>.cls-1{fill:#fff;}.cls-2{fill:#6ee1ff;}</style></defs><path class="cls-1" d="M636.31,179.26h87.56L755.7,272.5l81.87-93.24H935L863.72,444.57H775.41l35.25-131.51-86.41,94.37h-1.52L687.1,313.06,651.86,444.57h-86.8Z" transform="translate(-56.75 -173.96)"/><path class="cls-1" d="M948.59,329.73c0-82.24,67.08-155.77,156.15-155.77,78.07,0,131.9,52.3,131.9,120.14,0,82.25-67.09,155.78-156.15,155.78C1002.41,449.88,948.59,397.57,948.59,329.73Zm199-27.67c0-28-17.06-50-48.9-50-37.14,0-61,36.39-61,69.74,0,28.05,17.06,50,48.9,50C1123.69,371.8,1147.57,335.42,1147.57,302.06Z" transform="translate(-56.75 -173.96)"/><path class="cls-1" d="M1276.78,179.26h97.41l11.37,149,91.72-148.95H1577L1397.69,446.47h-84.9Z" transform="translate(-56.75 -173.96)"/><path class="cls-2" d="M961,484.37h118.78L984.32,839.68H865.55Z" transform="translate(-56.75 -173.96)"/><path class="cls-2" d="M1157.42,484.37h118.77l-34.51,127.4L1360,484.37h144.66L1342.69,646.8l74.1,192.88H1290.41l-42.64-114.21L1198,775.21l-17.26,64.47H1062Z" transform="translate(-56.75 -173.96)"/><path class="cls-2" d="M1560,484.37h303l-26.4,97.45H1650.32l-9.64,36h173.59l-22.84,85.78H1617.84l-10.66,38.58H1796l-25.88,97.46H1464.55Z" transform="translate(-56.75 -173.96)"/><rect class="cls-2" y="494.34" width="410.25" height="57.49" rx="1.19"/><rect class="cls-2" x="27.26" y="413.58" width="177.86" height="57.49" rx="1.19"/><path class="cls-2" d="M770.08,661.52c54.31-14.22,83.24-50.26,83.24-93.4,0-43.65-26.39-83.75-135.52-83.75H560.45l-25.54,95.09H425.09a28.75,28.75,0,0,0,0,57.49H545.46a28.58,28.58,0,0,0,21.72-10.16,28.31,28.31,0,0,1-28.26,33.52H513.2l-25,93.13H213.42a28.75,28.75,0,1,0,0,57.49H562.81c0,.12,0,.24,0,.36a28.75,28.75,0,0,1-25.19,28.39H658.41C780.23,839.68,828,791.46,828,731.56,828,695,803.58,670.14,770.08,661.52ZM662,749.83H604.6l14.22-52.78h51.27c25.37,0,38.07,7.1,38.07,22.33C708.16,737.14,690.9,749.83,662,749.83ZM693.44,624H638.62l13.19-49.74h49.24c25.38,0,36.55,6.09,36.55,20.81C737.6,610.25,723.89,624,693.44,624Z" transform="translate(-56.75 -173.96)"/></svg>